<svg xmlns="http://www.w3.org/2000/svg" viewBox="0 0 110.49 140.94"><defs><style>.cls-1{fill:#fff;}</style></defs><title>Asset 3</title><g id="Layer_2" data-name="Layer 2"><g id="Layer_2-2" data-name="Layer 2"><path class="cls-1" d="M4.29,40.51c-.74-1.85-2-8-.38-12.65S-9,21.2,9.39,7.29c0,0-8-1.78.88-3.55S28.33-2.48,41.35,1.81l2.36,3,3.41-3.1S63.84,8.8,57.92,29.2,50.4,50.5,50.4,50.5L6.53,49.84Z"/><path class="cls-1" d="M13.87,62.14c3.38,4.09,14.62,8,22,7.38s11-11.43,11-11.43S59.68,29.9,50.79,19.83,10.34-.82,6.7,17.87,10.48,58.05,13.87,62.14Z"/><path class="cls-1" d="M12.25,34.65a5.3,5.3,0,0,0-4.83-4.11C3.29,30.17,1.2,38.1,8.8,47.41S12.25,34.65,12.25,34.65Z"/><path class="cls-1" d="M12.15,35.52a4.88,4.88,0,0,0-4.38-4c-3.82-.39-5.94,7.2.88,16.18S12.15,35.52,12.15,35.52Z"/><path class="cls-1" d="M6.18,39.88s-.61-7.33,2.55-7C8.73,32.85,3.6,31.19,6.18,39.88Z"/><path class="cls-1" d="M47.12,1.67l-3.41,3.1-2.36-3c-13-4.29-22.2.15-31.08,1.93s-.88,3.55-.88,3.55C-9,21.2,5.54,23.27,3.91,27.86c-.05.15-.08.32-.13.47a30.89,30.89,0,0,0,7.94,6s-3.67-5.76-2.1-11.71c0,0,1.4,10.15,5.78,13.3,0,0,.17-9.27,4.55-12.07,0,0,.17,5.21,1.22,6.72,0,0,2.63-6.72,8.93-7.07s6.29-7.18,6.29-7.18,3.5,12,9.45,14.25V27.86s3.85,6,5.6,5.33l6.13-7.94,1.5-2.35A21.31,21.31,0,0,0,47.12,1.67Z"/><path class="cls-1" d="M57.68,12.91A21.93,21.93,0,0,0,47.12,1.67l-3.41,3.1-2.36-3c-13-4.29-22.2.15-31.08,1.93s-.88,3.55-.88,3.55c-5,3.79-7.56,6.7-8.67,9l-.1.85s2.62,8.4,7.17,9.45c0,0-.35-9.45,4-12.43,0,0-1.4,6.57,1.4,11.07,0,0,11.37-9.14,17.67-7.92s10.85-11,10.85-11,1.75,12.6,9.8,16.27l1.05-1.75a5.87,5.87,0,0,0,5.25,0C59.05,20.23,58.59,16.71,57.68,12.91Z"/><path class="cls-1" d="M13.16,13.3s15.61-2.12,22.58-7.43C35.74,5.87,32.71,13.45,13.16,13.3Z"/><path class="cls-1" d="M45,8.14s2.88,8.69,9.25,10.33C54.21,18.47,44.21,16.32,45,8.14Z"/><rect class="cls-1" x="7.09" y="74.43" width="43.47" height="66.51" rx="17.29" ry="17.29"/><path class="cls-1" d="M75.26,76.5A14,14,0,0,1,75,68.38c1-2.95-8.26-4.28,3.51-13.2,0,0-5.12-1.14.57-2.28s11.59-4,19.94-1.23l1.52,1.89,2.19-2s10.73,4.58,6.93,17.67-4.82,13.67-4.82,13.67L76.7,82.48Z"/><path class="cls-1" d="M81.41,90.38c2.17,2.62,9.38,5.12,14.1,4.73s7.06-7.34,7.06-7.34,8.24-18.08,2.53-24.54S79.15,50,76.81,62,79.24,87.75,81.41,90.38Z"/><path class="cls-1" d="M80.37,72.73a3.39,3.39,0,0,0-3.09-2.63c-2.66-.24-4,4.85.88,10.82S80.37,72.73,80.37,72.73Z"/><path class="cls-1" d="M80.31,73.3a3.14,3.14,0,0,0-2.81-2.55c-2.46-.25-3.82,4.62.56,10.38S80.31,73.3,80.31,73.3Z"/><path class="cls-1" d="M76.48,76.09s-.39-4.7,1.63-4.51C78.11,71.58,74.82,70.52,76.48,76.09Z"/><path class="cls-1" d="M102.75,51.57l-2.19,2L99,51.67c-8.35-2.76-14.24.09-19.94,1.23s-.57,2.28-.57,2.28C66.76,64.1,76.07,65.43,75,68.38c0,.1,0,.2-.08.3A19.83,19.83,0,0,0,80,72.5S77.68,68.81,78.69,65c0,0,.9,6.51,3.7,8.54,0,0,.11-6,2.92-7.75,0,0,.11,3.34.79,4.31,0,0,1.68-4.31,5.72-4.54S95.87,61,95.87,61s2.24,7.72,6.06,9.14V68.38s2.47,3.82,3.59,3.42l3.93-5.1,1-1.5A13.68,13.68,0,0,0,102.75,51.57Z"/><path class="cls-1" d="M109.52,58.78a14.09,14.09,0,0,0-6.77-7.21l-2.19,2L99,51.67c-8.35-2.76-14.24.09-19.94,1.23s-.57,2.28-.57,2.28C75.32,57.61,73.69,59.48,73,61l-.07.54s1.68,5.39,4.6,6.06c0,0-.22-6.06,2.58-8,0,0-.89,4.21.9,7.1,0,0,7.3-5.86,11.34-5.08s7-7.07,7-7.07,1.13,8.08,6.29,10.44l.68-1.12a3.74,3.74,0,0,0,3.36,0C110.4,63.48,110.11,61.22,109.52,58.78Z"/><path class="cls-1" d="M81,59s10-1.36,14.49-4.77C95.45,54.27,93.5,59.13,81,59Z"/><path class="cls-1" d="M101.36,55.72s1.85,5.58,5.94,6.63C107.3,62.35,100.88,61,101.36,55.72Z"/><rect class="cls-1" x="77.06" y="98.26" width="27.9" height="42.68" rx="11.09" ry="11.09"/></g></g></svg>