<svg xmlns="http://www.w3.org/2000/svg" viewBox="0 0 205.19 140.94"><defs><style>.cls-1{fill:#fff;}</style></defs><title>Asset 4</title><g id="Layer_2" data-name="Layer 2"><g id="Layer_2-2" data-name="Layer 2"><path class="cls-1" d="M4.29,40.51c-.74-1.85-2-8-.38-12.65S-9,21.2,9.39,7.29c0,0-8-1.78.88-3.55S28.33-2.48,41.35,1.81l2.36,3,3.41-3.1S63.84,8.8,57.92,29.2,50.4,50.5,50.4,50.5L6.53,49.84Z"/><path class="cls-1" d="M13.87,62.14c3.38,4.09,14.62,8,22,7.38s11-11.43,11-11.43S59.68,29.9,50.79,19.83,10.34-.82,6.7,17.87,10.48,58.05,13.87,62.14Z"/><path class="cls-1" d="M12.25,34.65a5.3,5.3,0,0,0-4.83-4.11C3.29,30.17,1.2,38.1,8.8,47.41S12.25,34.65,12.25,34.65Z"/><path class="cls-1" d="M12.15,35.52a4.88,4.88,0,0,0-4.38-4c-3.82-.39-5.94,7.2.88,16.18S12.15,35.52,12.15,35.52Z"/><path class="cls-1" d="M6.18,39.88s-.61-7.33,2.55-7C8.73,32.85,3.6,31.19,6.18,39.88Z"/><path class="cls-1" d="M47.12,1.67l-3.41,3.1-2.36-3c-13-4.29-22.2.15-31.08,1.93s-.88,3.55-.88,3.55C-9,21.2,5.54,23.27,3.91,27.86c-.05.15-.08.32-.13.47a30.89,30.89,0,0,0,7.94,6s-3.67-5.76-2.1-11.71c0,0,1.4,10.15,5.78,13.3,0,0,.17-9.27,4.55-12.07,0,0,.17,5.21,1.22,6.72,0,0,2.63-6.72,8.93-7.07s6.29-7.18,6.29-7.18,3.5,12,9.45,14.25V27.86s3.85,6,5.6,5.33l6.13-7.94,1.5-2.35A21.31,21.31,0,0,0,47.12,1.67Z"/><path class="cls-1" d="M57.68,12.91A21.93,21.93,0,0,0,47.12,1.67l-3.41,3.1-2.36-3c-13-4.29-22.2.15-31.08,1.93s-.88,3.55-.88,3.55c-5,3.79-7.56,6.7-8.67,9l-.1.85s2.62,8.4,7.17,9.45c0,0-.35-9.45,4-12.43,0,0-1.4,6.57,1.4,11.07,0,0,11.37-9.14,17.67-7.92s10.85-11,10.85-11,1.75,12.6,9.8,16.27l1.05-1.75a5.87,5.87,0,0,0,5.25,0C59.05,20.23,58.59,16.71,57.68,12.91Z"/><path class="cls-1" d="M13.16,13.3s15.61-2.12,22.58-7.43C35.74,5.87,32.71,13.45,13.16,13.3Z"/><path class="cls-1" d="M45,8.14s2.88,8.69,9.25,10.33C54.21,18.47,44.21,16.32,45,8.14Z"/><rect class="cls-1" x="7.09" y="74.43" width="43.47" height="66.51" rx="17.29" ry="17.29"/><path class="cls-1" d="M81.29,40.51c-.74-1.85-2-8-.38-12.65S68,21.2,86.39,7.29c0,0-8-1.78.88-3.55s18.06-6.22,31.08-1.93l2.36,3,3.41-3.1s16.72,7.13,10.8,27.53-7.52,21.3-7.52,21.3l-43.87-.66Z"/><path class="cls-1" d="M90.87,62.14c3.38,4.09,14.62,8,22,7.38s11-11.43,11-11.43,12.83-28.19,3.94-38.26S87.34-.82,83.7,17.87,87.48,58.05,90.87,62.14Z"/><path class="cls-1" d="M89.25,34.65a5.3,5.3,0,0,0-4.83-4.11c-4.13-.37-6.22,7.56,1.38,16.87S89.25,34.65,89.25,34.65Z"/><path class="cls-1" d="M89.15,35.52a4.88,4.88,0,0,0-4.38-4c-3.82-.39-5.94,7.2.88,16.18S89.15,35.52,89.15,35.52Z"/><path class="cls-1" d="M83.18,39.88s-.61-7.33,2.55-7C85.73,32.85,80.6,31.19,83.18,39.88Z"/><path class="cls-1" d="M124.12,1.67l-3.41,3.1-2.36-3c-13-4.29-22.2.15-31.08,1.93s-.88,3.55-.88,3.55C68,21.2,82.54,23.27,80.91,27.86c0,.15-.08.32-.13.47a30.89,30.89,0,0,0,7.94,6s-3.67-5.76-2.1-11.71c0,0,1.4,10.15,5.78,13.3,0,0,.17-9.27,4.55-12.07,0,0,.17,5.21,1.22,6.72,0,0,2.63-6.72,8.93-7.07s6.29-7.18,6.29-7.18,3.5,12,9.45,14.25V27.86s3.85,6,5.6,5.33l6.13-7.94,1.5-2.35A21.31,21.31,0,0,0,124.12,1.67Z"/><path class="cls-1" d="M134.68,12.91A21.93,21.93,0,0,0,124.12,1.67l-3.41,3.1-2.36-3c-13-4.29-22.2.15-31.08,1.93s-.88,3.55-.88,3.55c-5,3.79-7.56,6.7-8.67,9l-.1.85s2.62,8.4,7.17,9.45c0,0-.35-9.45,4-12.43,0,0-1.4,6.57,1.4,11.07,0,0,11.37-9.14,17.67-7.92s10.85-11,10.85-11,1.75,12.6,9.8,16.27l1.05-1.75a5.87,5.87,0,0,0,5.25,0C136.05,20.23,135.59,16.71,134.68,12.91Z"/><path class="cls-1" d="M90.16,13.3s15.61-2.12,22.58-7.43C112.74,5.87,109.71,13.45,90.16,13.3Z"/><path class="cls-1" d="M122,8.14s2.88,8.69,9.25,10.33C131.21,18.47,121.21,16.32,122,8.14Z"/><rect class="cls-1" x="84.09" y="74.43" width="43.47" height="66.51" rx="17.29" ry="17.29"/><path class="cls-1" d="M150.29,40.51c-.74-1.85-2-8-.38-12.65S137,21.2,155.39,7.29c0,0-8-1.78.88-3.55s18.06-6.22,31.08-1.93l2.36,3,3.41-3.1s16.72,7.13,10.8,27.53-7.52,21.3-7.52,21.3l-43.87-.66Z"/><path class="cls-1" d="M159.87,62.14c3.38,4.09,14.62,8,22,7.38s11-11.43,11-11.43,12.83-28.19,3.94-38.26-40.45-20.65-44.09-2S156.48,58.05,159.87,62.14Z"/><path class="cls-1" d="M158.25,34.65a5.3,5.3,0,0,0-4.83-4.11c-4.13-.37-6.22,7.56,1.38,16.87S158.25,34.65,158.25,34.65Z"/><path class="cls-1" d="M158.15,35.52a4.88,4.88,0,0,0-4.38-4c-3.82-.39-5.94,7.2.88,16.18S158.15,35.52,158.15,35.52Z"/><path class="cls-1" d="M152.18,39.88s-.61-7.33,2.55-7C154.73,32.85,149.6,31.19,152.18,39.88Z"/><path class="cls-1" d="M193.12,1.67l-3.41,3.1-2.36-3c-13-4.29-22.2.15-31.08,1.93s-.88,3.55-.88,3.55c-18.35,13.91-3.85,16-5.48,20.57,0,.15-.08.32-.13.47a30.89,30.89,0,0,0,7.94,6s-3.67-5.76-2.1-11.71c0,0,1.4,10.15,5.78,13.3,0,0,.17-9.27,4.55-12.07,0,0,.17,5.21,1.22,6.72,0,0,2.63-6.72,8.93-7.07s6.29-7.18,6.29-7.18,3.5,12,9.45,14.25V27.86s3.85,6,5.6,5.33l6.13-7.94,1.5-2.35A21.31,21.31,0,0,0,193.12,1.67Z"/><path class="cls-1" d="M203.68,12.91A21.93,21.93,0,0,0,193.12,1.67l-3.41,3.1-2.36-3c-13-4.29-22.2.15-31.08,1.93s-.88,3.55-.88,3.55c-5,3.79-7.56,6.7-8.67,9l-.1.85s2.62,8.4,7.17,9.45c0,0-.35-9.45,4-12.43,0,0-1.4,6.57,1.4,11.07,0,0,11.37-9.14,17.67-7.92s10.85-11,10.85-11,1.75,12.6,9.8,16.27l1.05-1.75a5.87,5.87,0,0,0,5.25,0C205.05,20.23,204.59,16.71,203.68,12.91Z"/><path class="cls-1" d="M159.16,13.3s15.61-2.12,22.58-7.43C181.74,5.87,178.71,13.45,159.16,13.3Z"/><path class="cls-1" d="M191,8.14s2.88,8.69,9.25,10.33C200.21,18.47,190.21,16.32,191,8.14Z"/><rect class="cls-1" x="153.09" y="74.43" width="43.47" height="66.51" rx="17.29" ry="17.29"/></g></g></svg>