<svg xmlns="http://www.w3.org/2000/svg" viewBox="0 0 365.65 186.3"><defs><style>.cls-1{fill:#e5e6e6;}</style></defs><title>Asset 2</title><g id="Layer_2" data-name="Layer 2"><g id="Layer_12" data-name="Layer 12"><path class="cls-1" d="M356.65,2.65H342.28V0H322.44V2.65H308.12V1a1,1,0,0,0-1-1H291.7a1,1,0,0,0-1,1V2.65h-7.1V1a1,1,0,0,0-1-1H267.18a1,1,0,0,0-1,1V2.65H9a9,9,0,0,0-9,9V177.3a9,9,0,0,0,9,9H356.65a9,9,0,0,0,9-9V11.65A9,9,0,0,0,356.65,2.65Zm-12,170.92a10,10,0,0,1-9.95,10H13.51a10,10,0,0,1-9.95-10V14.48a10,10,0,0,1,10-10H334.69a10,10,0,0,1,9.95,10Zm17-70.11a4.56,4.56,0,0,1-9.12,0V78.69a4.56,4.56,0,0,1,9.12,0ZM357.05,27a4.56,4.56,0,1,1,4.56-4.56A4.56,4.56,0,0,1,357.05,27Z"/></g></g></svg>