<svg xmlns="http://www.w3.org/2000/svg" viewBox="0 0 365.91 186.56"><defs><style>.cls-1{fill:#0c0d0d;stroke:#000;stroke-miterlimit:10;stroke-width:0.26px;}</style></defs><title>Asset 1</title><g id="Layer_2" data-name="Layer 2"><g id="Layer_12" data-name="Layer 12"><path class="cls-1" d="M356.78,2.78H342.41V.13H322.57V2.78H308.25V1.13a1,1,0,0,0-1-1H291.83a1,1,0,0,0-1,1V2.78h-7.1V1.13a1,1,0,0,0-1-1H267.31a1,1,0,0,0-1,1V2.78H9.13a9,9,0,0,0-9,9V177.43a9,9,0,0,0,9,9H356.78a9,9,0,0,0,9-9V11.78A9,9,0,0,0,356.78,2.78Zm-12,170.93a10,10,0,0,1-9.95,9.95H13.64a10,10,0,0,1-10-9.95V14.61a10,10,0,0,1,10-10H334.82a10,10,0,0,1,9.95,10Zm17-70.12a4.56,4.56,0,0,1-9.12,0V78.82a4.56,4.56,0,0,1,9.12,0Zm-4.56-76.45a4.56,4.56,0,1,1,4.56-4.56A4.56,4.56,0,0,1,357.18,27.14Z"/></g></g></svg>