<svg xmlns="http://www.w3.org/2000/svg" viewBox="0 0 145.37 145.37"><defs><style>.cls-1{fill:#fff;}.cls-2{fill:#231f20;}.cls-3{fill:none;stroke:#fff;stroke-miterlimit:10;stroke-width:3.66px;}</style></defs><title>Asset 6</title><g id="Layer_2" data-name="Layer 2"><g id="Layer_2-2" data-name="Layer 2"><circle class="cls-1" cx="72.69" cy="72.69" r="59.62"/><path class="cls-2" d="M121.9,81.53,71.55,75.22a3,3,0,0,1,.06-5.76L122,63.83a3,3,0,0,1,2.91.68l6.3,5.61a3,3,0,0,1,.08,4.33L125,80.79A3,3,0,0,1,121.9,81.53Z"/><path class="cls-2" d="M78.42,25.63,75.1,73.27a2.85,2.85,0,0,1-5.45,0L66.1,25.54a2.85,2.85,0,0,1,.64-2.75l3.54-6a2.84,2.84,0,0,1,4.1-.07l3.34,6A2.87,2.87,0,0,1,78.42,25.63Z"/><circle class="cls-3" cx="72.69" cy="72.69" r="70.86"/></g></g></svg>